<svg xmlns="http://www.w3.org/2000/svg" viewBox="0 0 51.69 47.01"><g id="Layer_2" data-name="Layer 2"><g id="OBJECTS"><path d="M26.31,15.82V11.05A2.65,2.65,0,0,0,23.66,8.4H10.76a2.65,2.65,0,0,0-2.64,2.65v4.77a2.65,2.65,0,0,0,2.64,2.65h12.9A2.65,2.65,0,0,0,26.31,15.82Zm-16.56,0V11.05a1,1,0,0,1,1-1h12.9a1,1,0,0,1,1,1v4.77a1,1,0,0,1-1,1H10.76A1,1,0,0,1,9.75,15.82Z" fill="#1145BE"/><path d="M19.24,30.64H14.67a.82.82,0,0,0-.82.82.82.82,0,0,0,.82.81h4.57a.82.82,0,0,0,.82-.81A.82.82,0,0,0,19.24,30.64Z" fill="#1145BE"/><path d="M19.24,34.14H14.67a.82.82,0,0,0,0,1.64h4.57a.82.82,0,0,0,0-1.64Z" fill="#1145BE"/><path d="M49.05,9.85H35.41a2.6,2.6,0,0,0-1,.2V9.22a.82.82,0,1,0-1.64,0V28.65a2.77,2.77,0,0,0-.46.22,1.07,1.07,0,0,1-.55.12,7.69,7.69,0,0,1-4.11-2,2.74,2.74,0,0,0-1.73-.62,2.66,2.66,0,0,0-1.09.23,4.59,4.59,0,0,0-1.72-1.08,13.42,13.42,0,1,0-11.77,0,4.53,4.53,0,0,0-1.19.63A2.91,2.91,0,0,0,9.25,26a2.8,2.8,0,0,0-.81.13C3.16,27.72,0,30.85,0,34.45a2.72,2.72,0,0,0,5.44,0c0-.66,1-1.64,2.77-2.47V44.37A2.65,2.65,0,0,0,10.86,47h1.32a2.65,2.65,0,0,0,2.65-2.64V41.22H19.6v3.15A2.65,2.65,0,0,0,22.25,47h1.32a2.64,2.64,0,0,0,2.64-2.64V32.62a10.77,10.77,0,0,0,5.56,1.81,6.41,6.41,0,0,0,1-.07V46.2a.82.82,0,0,0,1.64,0V33.9a7.24,7.24,0,0,0,.73-.38A2.73,2.73,0,0,0,36,29.78a2.65,2.65,0,0,0-1.64-1.22V21.87a2.6,2.6,0,0,0,1,.2h2.74a.82.82,0,0,0,.82-.81.82.82,0,0,0-.82-.82H35.41a1,1,0,0,1-1-1V12.49a1,1,0,0,1,1-1H49.05a1,1,0,0,1,1,1v6.94a1,1,0,0,1-1,1H40.82a.82.82,0,1,0,0,1.63h8.23a2.64,2.64,0,0,0,2.64-2.64V12.49A2.65,2.65,0,0,0,49.05,9.85ZM5.43,13.41A11.78,11.78,0,1,1,17.21,25.19,11.8,11.8,0,0,1,5.43,13.41ZM9.57,29.72h0l-.39.12,0,0C5.84,31,3.81,32.71,3.81,34.45a1.09,1.09,0,0,1-2.18,0c0-2.85,2.73-5.39,7.3-6.81a.86.86,0,0,1,.32-.05,1,1,0,0,1,.55.15,0,0,0,0,1,0,0,1.05,1.05,0,0,1,.32.29h0l0,.08,0,0,0,.06v0a1,1,0,0,0,0,.1,1.26,1.26,0,0,1,.05.33s0,.08,0,.12a1.08,1.08,0,0,1-.56.83Zm3.62,14.65a1,1,0,0,1-1,1H10.86a1,1,0,0,1-1-1V41.22h3.34Zm11.39,0a1,1,0,0,1-1,1H22.25a1,1,0,0,1-1-1V41.22h3.34Zm0-4.78H9.85V31.34l.21-.06a2.84,2.84,0,0,0,1.14-.7,2.75,2.75,0,0,0,.77-1.9,2.84,2.84,0,0,0-.12-.81h0c0-.06,0-.12-.07-.19a.47.47,0,0,0,0-.1l0-.08-.07-.14,0,0-.1-.16a3.2,3.2,0,0,1,1.4-.33h8.61a3,3,0,0,1,2.06.8h0l-.1.17v0a.89.89,0,0,0-.08.17v0a.52.52,0,0,0-.06.16v0a1.21,1.21,0,0,0,0,.18v0a1.29,1.29,0,0,0,0,.19v0c0,.06,0,.12,0,.18v0c0,.07,0,.13,0,.19v0a1.27,1.27,0,0,0,0,.2,2.68,2.68,0,0,0,1,1.84l.37.29,0,0v8.12Zm10.07-9a1.09,1.09,0,0,1-.37,1.49,4.75,4.75,0,0,1-2.51.68,10.33,10.33,0,0,1-6-2.5l-.14-.11-.39-.31a1.08,1.08,0,0,1-.39-.73V29h0a1.1,1.1,0,0,1,.25-.69l.06-.06.06-.06h0a1.06,1.06,0,0,1,.71-.27,1.1,1.1,0,0,1,.69.25c1.89,1.56,3.72,2.42,5.15,2.42a2.63,2.63,0,0,0,1.4-.36,1.12,1.12,0,0,1,.4-.14h.18A1.08,1.08,0,0,1,34.65,30.63Z" fill="#1145BE"/></g></g></svg>