<svg xmlns="http://www.w3.org/2000/svg" viewBox="0 0 38.84 38.84"><g id="Layer_2" data-name="Layer 2"><g id="OBJECTS"><path d="M19.42,14.74a4.68,4.68,0,0,0,0,9.36,4.75,4.75,0,0,0,3.43-1.49.62.62,0,0,0,0-.87.6.6,0,0,0-.86,0,3.42,3.42,0,0,1-2.53,1.1,3.46,3.46,0,1,1,3.45-3.45,3.41,3.41,0,0,1-.1.85.61.61,0,1,0,1.18.31,4.56,4.56,0,0,0,.15-1.16A4.69,4.69,0,0,0,19.42,14.74Z" fill="#1145BE"/><path d="M38.84,19.42c0-2.25-1.81-4.34-5.11-5.93,1.21-3.46,1-6.21-.58-7.8a5.08,5.08,0,0,0-3.77-1.36,12.38,12.38,0,0,0-4,.78C23.76,1.81,21.67,0,19.42,0s-4.34,1.81-5.93,5.11a12.43,12.43,0,0,0-4-.78A5.08,5.08,0,0,0,5.69,5.69C4.1,7.28,3.9,10,5.1,13.49,1.8,15.08,0,17.17,0,19.42s1.8,4.34,5.1,5.93c-1.2,3.46-1,6.21.59,7.8a5.12,5.12,0,0,0,3.77,1.36h0a12.43,12.43,0,0,0,4-.78c1.59,3.3,3.68,5.11,5.93,5.11s4.34-1.81,5.93-5.11a12.38,12.38,0,0,0,4,.78,5.12,5.12,0,0,0,3.77-1.36c1.59-1.59,1.79-4.34.58-7.8C37,23.76,38.84,21.67,38.84,19.42ZM29.38,5.55a4,4,0,0,1,2.9,1c1.27,1.28,1.3,3.62.32,6.44a28.37,28.37,0,0,0-5.22-1.53,28.6,28.6,0,0,0-1.53-5.24A11,11,0,0,1,29.38,5.55ZM28.1,18c.38.49.74,1,1.08,1.46-.34.48-.7,1-1.08,1.46,0-.48,0-1,0-1.45S28.11,18.44,28.1,18Zm1.82,2.55a27,27,0,0,1,2.25,4.19,27,27,0,0,1-4.56,1.38c.16-1,.29-2,.37-3.1C28.67,22.15,29.32,21.33,29.92,20.5Zm0-2.17c-.59-.83-1.24-1.65-1.93-2.46-.08-1.06-.21-2.09-.37-3.1a26.61,26.61,0,0,1,4.55,1.37A27.12,27.12,0,0,1,29.91,18.33Zm-5.2,6.38c-.73.73-1.48,1.42-2.23,2.07q-1.5.12-3.06.12t-3.06-.12c-.75-.65-1.5-1.34-2.23-2.07s-1.43-1.48-2.08-2.24c-.07-1-.11-2-.11-3s0-2.06.11-3.05c.65-.76,1.35-1.51,2.08-2.24s1.48-1.42,2.23-2.08c1-.07,2-.11,3.06-.11s2.06,0,3.06.11c.75.66,1.5,1.35,2.23,2.08s1.42,1.48,2.07,2.23q.12,1.5.12,3.06c0,1,0,2.06-.11,3C26.13,23.22,25.44,24,24.71,24.71Zm1.87-.18c-.07.61-.16,1.2-.26,1.79-.59.1-1.18.19-1.79.26.35-.33.7-.66,1-1S26.25,24.88,26.58,24.53Zm-5.7,3.57c-.49.38-1,.74-1.46,1.09-.49-.35-1-.71-1.47-1.09l1.47,0Zm-6.57-1.52c-.61-.07-1.21-.16-1.79-.26-.1-.59-.19-1.18-.26-1.79.32.35.66.7,1,1S14,26.25,14.31,26.58ZM12.26,14.31c.07-.61.16-1.21.26-1.79.58-.1,1.18-.19,1.79-.26-.35.32-.7.66-1.05,1S12.58,14,12.26,14.31ZM18,10.74c.49-.38,1-.75,1.47-1.09.49.34,1,.71,1.46,1.09-.48,0-1,0-1.46,0Zm6.58,1.52c.61.07,1.2.16,1.79.26.1.58.19,1.18.26,1.79-.33-.35-.66-.7-1-1.05S24.88,12.58,24.53,12.26Zm1.54-1c-1-.16-2.05-.29-3.11-.37-.81-.7-1.64-1.34-2.47-1.94a26.4,26.4,0,0,1,4.2-2.26A26.84,26.84,0,0,1,26.07,11.23Zm-6.65-10c1.8,0,3.47,1.64,4.78,4.32a28.93,28.93,0,0,0-4.78,2.62,28.93,28.93,0,0,0-4.78-2.62C16,2.87,17.62,1.23,19.42,1.23ZM14.15,6.66a25.91,25.91,0,0,1,4.19,2.26c-.82.6-1.65,1.24-2.46,1.94-1.07.08-2.1.21-3.11.37A26.84,26.84,0,0,1,14.15,6.66Zm-7.6-.1a4,4,0,0,1,2.91-1A11,11,0,0,1,13,6.22a28.6,28.6,0,0,0-1.53,5.24A28.72,28.72,0,0,0,6.23,13C5.26,10.17,5.28,7.83,6.55,6.56Zm4.19,14.31c-.38-.48-.74-1-1.08-1.45.34-.48.7-1,1.08-1.45,0,.48,0,1,0,1.45S10.72,20.39,10.74,20.87Zm.12,2.1c.08,1.06.21,2.09.37,3.1A28,28,0,0,1,6.67,24.7a26.77,26.77,0,0,1,2.26-4.19C9.52,21.34,10.17,22.16,10.86,23Zm0-7.1c-.69.81-1.34,1.63-1.93,2.46a27.22,27.22,0,0,1-2.26-4.19,27,27,0,0,1,4.56-1.37C11.07,13.78,10.94,14.81,10.86,15.87ZM1.23,19.42c0-1.8,1.63-3.47,4.32-4.78a28,28,0,0,0,2.61,4.78,28.31,28.31,0,0,0-2.61,4.77C2.86,22.89,1.23,21.22,1.23,19.42ZM9.46,33.29a4,4,0,0,1-2.91-1C5.28,31,5.26,28.67,6.23,25.85a28.72,28.72,0,0,0,5.23,1.53A28.6,28.6,0,0,0,13,32.62,11.31,11.31,0,0,1,9.46,33.29Zm3.31-5.68c1,.16,2,.29,3.11.37.81.69,1.64,1.34,2.46,1.94a25.91,25.91,0,0,1-4.19,2.26A26.84,26.84,0,0,1,12.77,27.61Zm6.65,10c-1.8,0-3.47-1.64-4.78-4.32a28.93,28.93,0,0,0,4.78-2.62,28.93,28.93,0,0,0,4.78,2.62C22.89,36,21.22,37.61,19.42,37.61Zm5.27-5.43a26.4,26.4,0,0,1-4.2-2.26c.83-.6,1.66-1.25,2.47-1.94,1.06-.08,2.1-.21,3.11-.37A26.84,26.84,0,0,1,24.69,32.18Zm7.59.1a3.92,3.92,0,0,1-2.9,1,11.26,11.26,0,0,1-3.53-.67,28.6,28.6,0,0,0,1.53-5.24,28.72,28.72,0,0,0,5.23-1.53C33.6,28.76,33.49,31.07,32.28,32.28Zm1-8.09a28.4,28.4,0,0,0-2.62-4.77,28.09,28.09,0,0,0,2.62-4.78c2.68,1.31,4.32,3,4.32,4.78S36,22.89,33.29,24.19Z" fill="#1145BE"/></g></g></svg>