<svg xmlns="http://www.w3.org/2000/svg" viewBox="0 0 51.69 49.71"><g id="Layer_2" data-name="Layer 2"><g id="OBJECTS"><path d="M26.09,11.71a4.21,4.21,0,1,0,4.21,4.21A4.22,4.22,0,0,0,26.09,11.71Zm0,6.79a2.58,2.58,0,1,1,2.57-2.58A2.59,2.59,0,0,1,26.09,18.5Z" fill="#1145BE"/><path d="M42.83,35.54V23.46a.83.83,0,0,0-.24-.58l-7.86-7.82V13.34A14.78,14.78,0,0,0,26.45.08a.83.83,0,0,0-.72,0,14.73,14.73,0,0,0-8.28,13.26v1.72L9.58,22.88a.83.83,0,0,0-.24.58V35.54a.82.82,0,0,0,.82.82h7.29v0a2.89,2.89,0,0,0,2.89,2.89h1.21a7.59,7.59,0,0,0,4.26,10.38.87.87,0,0,0,.28.05.92.92,0,0,0,.28-.05,7.57,7.57,0,0,0,4.25-10.38h1.22a2.9,2.9,0,0,0,2.89-2.89v0H42A.82.82,0,0,0,42.83,35.54Zm-25.38-2.3v1.48H11V23.8l6.47-6.43Zm2.89,4.4a1.26,1.26,0,0,1-1.26-1.25V34.06h6.19v3.58ZM26.09,48a6,6,0,0,1-3.64-5.48,5.88,5.88,0,0,1,.95-3.21h1.87v1.51a.82.82,0,0,0,1.64,0V39.32h1.86a5.88,5.88,0,0,1,.95,3.21A6,6,0,0,1,26.09,48Zm7-11.62h0a1.25,1.25,0,0,1-1.25,1.25H26.91V34.06h6.18Zm8.1-1.67H34.73V28.19a.82.82,0,0,0-1.64,0v4.23H26.9V30.25a.82.82,0,1,0-1.63,0v2.17H19.08V13.34a13,13,0,0,1,7-11.6,13,13,0,0,1,7,11.6V25.41a.82.82,0,0,0,1.64,0v-8l6.46,6.43V34.72Z" fill="#1145BE"/><path d="M44.78,40.61a7,7,0,0,0-2.67.54,3.59,3.59,0,0,0-7,1.08.82.82,0,0,0,1.63,0,2,2,0,1,1,3.91,0,1.94,1.94,0,0,1-.46,1.26.81.81,0,0,0,.1,1.15.83.83,0,0,0,1.15-.09,3.58,3.58,0,0,0,.78-1.63,5.27,5.27,0,0,1,7.84,4.61.82.82,0,0,0,1.64,0A6.93,6.93,0,0,0,44.78,40.61Z" fill="#1145BE" /><path d="M15.67,44.08a4.26,4.26,0,0,0-.95.11.83.83,0,0,0,.07-.69A4.54,4.54,0,0,0,6.9,42.27,5.5,5.5,0,0,0,0,47.58a.82.82,0,0,0,.82.81.82.82,0,0,0,.82-.81,3.85,3.85,0,0,1,7.11-2,.82.82,0,0,0,1.13.25.8.8,0,0,0,.26-1.12A5.53,5.53,0,0,0,8.47,43a2.88,2.88,0,0,1,4.77,1.09.84.84,0,0,0,.51.5,4.14,4.14,0,0,0-2.21,3.66.82.82,0,1,0,1.63,0,2.5,2.5,0,0,1,5,0,.82.82,0,0,0,1.64,0A4.14,4.14,0,0,0,15.67,44.08Z" fill="#1145BE"/></g></g></svg>